<svg width="227" height="40" viewBox="0 0 227 40" fill="none" xmlns="http://www.w3.org/2000/svg">
<g clip-path="url(#clip0_403_3713)">
<path fill-rule="evenodd" clip-rule="evenodd" d="M8 10C8 8.61929 9.11929 7.5 10.5 7.5H14.25C15.6307 7.5 16.75 8.61929 16.75 10V30C16.75 31.3807 15.6307 32.5 14.25 32.5H10.5C9.11929 32.5 8 31.3807 8 30V10ZM14.25 10H10.5V30H14.25V10Z" fill="#FFCC00"/>
<path fill-rule="evenodd" clip-rule="evenodd" d="M24.25 10C24.25 8.61929 25.3693 7.5 26.75 7.5H30.5C31.8807 7.5 33 8.61929 33 10V30C33 31.3807 31.8807 32.5 30.5 32.5H26.75C25.3693 32.5 24.25 31.3807 24.25 30V10ZM30.5 10H26.75V30H30.5V10Z" fill="#FFCC00"/>
<path fill-rule="evenodd" clip-rule="evenodd" d="M30.5 12.5C30.5 11.8096 31.0596 11.25 31.75 11.25H35.5C36.163 11.25 36.7989 11.5134 37.2678 11.9822C37.7366 12.4511 38 13.087 38 13.75V26.25C38 26.913 37.7366 27.5489 37.2678 28.0178C36.7989 28.4866 36.163 28.75 35.5 28.75H31.75C31.0596 28.75 30.5 28.1904 30.5 27.5C30.5 26.8096 31.0596 26.25 31.75 26.25H35.5L35.5 13.75L31.75 13.75C31.0596 13.75 30.5 13.1904 30.5 12.5Z" fill="#FFCC00"/>
<path fill-rule="evenodd" clip-rule="evenodd" d="M3.73223 11.9822C4.20107 11.5134 4.83696 11.25 5.5 11.25H9.25C9.94036 11.25 10.5 11.8096 10.5 12.5C10.5 13.1904 9.94036 13.75 9.25 13.75L5.5 13.75V26.25H9.25C9.94036 26.25 10.5 26.8096 10.5 27.5C10.5 28.1904 9.94036 28.75 9.25 28.75H5.5C4.83696 28.75 4.20108 28.4866 3.73223 28.0178C3.26339 27.5489 3 26.913 3 26.25V13.75C3 13.087 3.26339 12.4511 3.73223 11.9822Z" fill="#FFCC00"/>
<path fill-rule="evenodd" clip-rule="evenodd" d="M14.25 20C14.25 19.3096 14.8096 18.75 15.5 18.75H25.5C26.1904 18.75 26.75 19.3096 26.75 20C26.75 20.6904 26.1904 21.25 25.5 21.25H15.5C14.8096 21.25 14.25 20.6904 14.25 20Z" fill="#FFCC00"/>
<path fill-rule="evenodd" clip-rule="evenodd" d="M35.5 20C35.5 19.3096 36.0596 18.75 36.75 18.75H39.25C39.9404 18.75 40.5 19.3096 40.5 20C40.5 20.6904 39.9404 21.25 39.25 21.25H36.75C36.0596 21.25 35.5 20.6904 35.5 20Z" fill="#FFCC00"/>
<path fill-rule="evenodd" clip-rule="evenodd" d="M0.5 20C0.5 19.3096 1.05964 18.75 1.75 18.75H4.25C4.94036 18.75 5.5 19.3096 5.5 20C5.5 20.6904 4.94036 21.25 4.25 21.25H1.75C1.05964 21.25 0.5 20.6904 0.5 20Z" fill="#FFCC00"/>
</g>
<path d="M56.2383 9.59375H59.7109L64.8242 24.209L69.9375 9.59375H73.4102L66.2188 29.5H63.4297L56.2383 9.59375ZM54.3652 9.59375H57.8242L58.4531 23.8398V29.5H54.3652V9.59375ZM71.8242 9.59375H75.2969V29.5H71.1953V23.8398L71.8242 9.59375ZM85.4551 29.7734C84.3066 29.7734 83.2767 29.5911 82.3652 29.2266C81.4538 28.8529 80.679 28.3379 80.041 27.6816C79.4121 27.0254 78.929 26.2643 78.5918 25.3984C78.2546 24.5234 78.0859 23.5938 78.0859 22.6094V22.0625C78.0859 20.9414 78.2454 19.916 78.5645 18.9863C78.8835 18.0566 79.3392 17.25 79.9316 16.5664C80.5332 15.8828 81.2624 15.3587 82.1191 14.9941C82.9759 14.6204 83.9421 14.4336 85.0176 14.4336C86.0658 14.4336 86.9954 14.6068 87.8066 14.9531C88.6178 15.2995 89.2969 15.7917 89.8438 16.4297C90.3997 17.0677 90.819 17.8333 91.1016 18.7266C91.3841 19.6107 91.5254 20.5951 91.5254 21.6797V23.3203H79.7676V20.6953H87.6562V20.3945C87.6562 19.8477 87.556 19.36 87.3555 18.9316C87.1641 18.4941 86.8724 18.1478 86.4805 17.8926C86.0885 17.6374 85.5872 17.5098 84.9766 17.5098C84.457 17.5098 84.0104 17.6237 83.6367 17.8516C83.263 18.0794 82.9577 18.3984 82.7207 18.8086C82.4928 19.2188 82.3197 19.7018 82.2012 20.2578C82.0918 20.8047 82.0371 21.4062 82.0371 22.0625V22.6094C82.0371 23.2018 82.1191 23.7487 82.2832 24.25C82.4564 24.7513 82.6979 25.1842 83.0078 25.5488C83.3268 25.9134 83.7096 26.196 84.1562 26.3965C84.612 26.597 85.127 26.6973 85.7012 26.6973C86.4121 26.6973 87.0729 26.5605 87.6836 26.2871C88.3034 26.0046 88.8366 25.5807 89.2832 25.0156L91.1973 27.0938C90.8874 27.5404 90.4635 27.9688 89.9258 28.3789C89.3971 28.7891 88.7591 29.1263 88.0117 29.3906C87.2643 29.6458 86.4121 29.7734 85.4551 29.7734ZM102.518 25.959V14.707H106.455V29.5H102.75L102.518 25.959ZM102.955 22.9238L104.117 22.8965C104.117 23.8809 104.003 24.7969 103.775 25.6445C103.548 26.4831 103.206 27.2122 102.75 27.832C102.294 28.4427 101.72 28.9212 101.027 29.2676C100.335 29.6048 99.5189 29.7734 98.5801 29.7734C97.86 29.7734 97.1947 29.6732 96.584 29.4727C95.9824 29.263 95.4629 28.9395 95.0254 28.502C94.597 28.0553 94.2598 27.4857 94.0137 26.793C93.7767 26.0911 93.6582 25.248 93.6582 24.2637V14.707H97.5957V24.291C97.5957 24.7285 97.6458 25.0977 97.7461 25.3984C97.8555 25.6992 98.0059 25.9453 98.1973 26.1367C98.3887 26.3281 98.612 26.4648 98.8672 26.5469C99.1315 26.6289 99.4232 26.6699 99.7422 26.6699C100.553 26.6699 101.191 26.5059 101.656 26.1777C102.13 25.8496 102.463 25.403 102.654 24.8379C102.855 24.2637 102.955 23.6257 102.955 22.9238ZM124.434 22.4043H119.361V19.2051H124.434C125.217 19.2051 125.855 19.0775 126.348 18.8223C126.84 18.5579 127.2 18.1934 127.428 17.7285C127.656 17.2637 127.77 16.7396 127.77 16.1562C127.77 15.5638 127.656 15.0124 127.428 14.502C127.2 13.9915 126.84 13.5814 126.348 13.2715C125.855 12.9616 125.217 12.8066 124.434 12.8066H120.783V29.5H116.682V9.59375H124.434C125.992 9.59375 127.327 9.8763 128.439 10.4414C129.561 10.9974 130.417 11.7676 131.01 12.752C131.602 13.7363 131.898 14.862 131.898 16.1289C131.898 17.4141 131.602 18.526 131.01 19.4648C130.417 20.4036 129.561 21.1283 128.439 21.6387C127.327 22.1491 125.992 22.4043 124.434 22.4043ZM141.1 29.7734C139.951 29.7734 138.921 29.5911 138.01 29.2266C137.098 28.8529 136.324 28.3379 135.686 27.6816C135.057 27.0254 134.574 26.2643 134.236 25.3984C133.899 24.5234 133.73 23.5938 133.73 22.6094V22.0625C133.73 20.9414 133.89 19.916 134.209 18.9863C134.528 18.0566 134.984 17.25 135.576 16.5664C136.178 15.8828 136.907 15.3587 137.764 14.9941C138.62 14.6204 139.587 14.4336 140.662 14.4336C141.71 14.4336 142.64 14.6068 143.451 14.9531C144.262 15.2995 144.941 15.7917 145.488 16.4297C146.044 17.0677 146.464 17.8333 146.746 18.7266C147.029 19.6107 147.17 20.5951 147.17 21.6797V23.3203H135.412V20.6953H143.301V20.3945C143.301 19.8477 143.201 19.36 143 18.9316C142.809 18.4941 142.517 18.1478 142.125 17.8926C141.733 17.6374 141.232 17.5098 140.621 17.5098C140.102 17.5098 139.655 17.6237 139.281 17.8516C138.908 18.0794 138.602 18.3984 138.365 18.8086C138.137 19.2188 137.964 19.7018 137.846 20.2578C137.736 20.8047 137.682 21.4062 137.682 22.0625V22.6094C137.682 23.2018 137.764 23.7487 137.928 24.25C138.101 24.7513 138.342 25.1842 138.652 25.5488C138.971 25.9134 139.354 26.196 139.801 26.3965C140.257 26.597 140.771 26.6973 141.346 26.6973C142.057 26.6973 142.717 26.5605 143.328 26.2871C143.948 26.0046 144.481 25.5807 144.928 25.0156L146.842 27.0938C146.532 27.5404 146.108 27.9688 145.57 28.3789C145.042 28.7891 144.404 29.1263 143.656 29.3906C142.909 29.6458 142.057 29.7734 141.1 29.7734ZM153.35 17.9336V29.5H149.412V14.707H153.117L153.35 17.9336ZM157.807 14.6113L157.738 18.2617C157.547 18.2344 157.314 18.2116 157.041 18.1934C156.777 18.166 156.535 18.1523 156.316 18.1523C155.76 18.1523 155.277 18.2253 154.867 18.3711C154.466 18.5078 154.129 18.7129 153.855 18.9863C153.591 19.2598 153.391 19.5924 153.254 19.9844C153.126 20.3763 153.053 20.8229 153.035 21.3242L152.242 21.0781C152.242 20.1211 152.338 19.2415 152.529 18.4395C152.721 17.6283 152.999 16.9219 153.363 16.3203C153.737 15.7188 154.193 15.2539 154.73 14.9258C155.268 14.5977 155.883 14.4336 156.576 14.4336C156.795 14.4336 157.018 14.4518 157.246 14.4883C157.474 14.5156 157.661 14.5566 157.807 14.6113ZM167.664 25.4121C167.664 25.1296 167.582 24.8743 167.418 24.6465C167.254 24.4186 166.949 24.209 166.502 24.0176C166.064 23.8171 165.431 23.6348 164.602 23.4707C163.854 23.3066 163.157 23.1016 162.51 22.8555C161.872 22.6003 161.316 22.2949 160.842 21.9395C160.377 21.584 160.012 21.1647 159.748 20.6816C159.484 20.1895 159.352 19.6289 159.352 19C159.352 18.3802 159.484 17.7969 159.748 17.25C160.021 16.7031 160.409 16.2201 160.91 15.8008C161.421 15.3724 162.04 15.0397 162.77 14.8027C163.508 14.5566 164.337 14.4336 165.258 14.4336C166.543 14.4336 167.646 14.6387 168.566 15.0488C169.496 15.459 170.207 16.0241 170.699 16.7441C171.201 17.4551 171.451 18.2663 171.451 19.1777H167.514C167.514 18.7949 167.432 18.4531 167.268 18.1523C167.113 17.8424 166.867 17.6009 166.529 17.4277C166.201 17.2454 165.773 17.1543 165.244 17.1543C164.807 17.1543 164.428 17.2318 164.109 17.3867C163.79 17.5326 163.544 17.7331 163.371 17.9883C163.207 18.2344 163.125 18.5078 163.125 18.8086C163.125 19.0365 163.171 19.2415 163.262 19.4238C163.362 19.597 163.521 19.7565 163.74 19.9023C163.959 20.0482 164.242 20.1849 164.588 20.3125C164.943 20.431 165.381 20.5404 165.9 20.6406C166.967 20.8594 167.919 21.1465 168.758 21.502C169.596 21.8483 170.262 22.3223 170.754 22.9238C171.246 23.5163 171.492 24.2956 171.492 25.2617C171.492 25.918 171.346 26.5195 171.055 27.0664C170.763 27.6133 170.344 28.0918 169.797 28.502C169.25 28.903 168.594 29.2174 167.828 29.4453C167.072 29.6641 166.219 29.7734 165.271 29.7734C163.895 29.7734 162.729 29.5273 161.771 29.0352C160.824 28.543 160.104 27.9186 159.611 27.1621C159.128 26.3965 158.887 25.6126 158.887 24.8105H162.619C162.637 25.3483 162.774 25.7812 163.029 26.1094C163.294 26.4375 163.626 26.6745 164.027 26.8203C164.438 26.9661 164.88 27.0391 165.354 27.0391C165.864 27.0391 166.288 26.9707 166.625 26.834C166.962 26.6882 167.217 26.4967 167.391 26.2598C167.573 26.0137 167.664 25.7311 167.664 25.4121ZM173.42 22.2539V21.9668C173.42 20.8822 173.575 19.8841 173.885 18.9727C174.195 18.0521 174.646 17.2546 175.238 16.5801C175.831 15.9056 176.56 15.3815 177.426 15.0078C178.292 14.625 179.285 14.4336 180.406 14.4336C181.527 14.4336 182.525 14.625 183.4 15.0078C184.275 15.3815 185.009 15.9056 185.602 16.5801C186.203 17.2546 186.659 18.0521 186.969 18.9727C187.279 19.8841 187.434 20.8822 187.434 21.9668V22.2539C187.434 23.3294 187.279 24.3275 186.969 25.248C186.659 26.1595 186.203 26.957 185.602 27.6406C185.009 28.3151 184.28 28.8392 183.414 29.2129C182.548 29.5866 181.555 29.7734 180.434 29.7734C179.312 29.7734 178.314 29.5866 177.439 29.2129C176.574 28.8392 175.84 28.3151 175.238 27.6406C174.646 26.957 174.195 26.1595 173.885 25.248C173.575 24.3275 173.42 23.3294 173.42 22.2539ZM177.357 21.9668V22.2539C177.357 22.8737 177.412 23.4525 177.521 23.9902C177.631 24.528 177.804 25.002 178.041 25.4121C178.287 25.8132 178.606 26.1276 178.998 26.3555C179.39 26.5833 179.868 26.6973 180.434 26.6973C180.98 26.6973 181.45 26.5833 181.842 26.3555C182.234 26.1276 182.548 25.8132 182.785 25.4121C183.022 25.002 183.195 24.528 183.305 23.9902C183.423 23.4525 183.482 22.8737 183.482 22.2539V21.9668C183.482 21.3652 183.423 20.8001 183.305 20.2715C183.195 19.7337 183.018 19.2598 182.771 18.8496C182.535 18.4303 182.22 18.1022 181.828 17.8652C181.436 17.6283 180.962 17.5098 180.406 17.5098C179.85 17.5098 179.376 17.6283 178.984 17.8652C178.602 18.1022 178.287 18.4303 178.041 18.8496C177.804 19.2598 177.631 19.7337 177.521 20.2715C177.412 20.8001 177.357 21.3652 177.357 21.9668ZM193.709 17.8652V29.5H189.771V14.707H193.463L193.709 17.8652ZM193.135 21.584H192.068C192.068 20.4902 192.21 19.5059 192.492 18.6309C192.775 17.7467 193.171 16.9948 193.682 16.375C194.192 15.7461 194.798 15.2676 195.5 14.9395C196.211 14.6022 197.004 14.4336 197.879 14.4336C198.572 14.4336 199.205 14.5339 199.779 14.7344C200.354 14.9349 200.846 15.2539 201.256 15.6914C201.675 16.1289 201.994 16.7077 202.213 17.4277C202.441 18.1478 202.555 19.0273 202.555 20.0664V29.5H198.59V20.0527C198.59 19.3965 198.499 18.8861 198.316 18.5215C198.134 18.1569 197.865 17.9017 197.51 17.7559C197.163 17.6009 196.735 17.5234 196.225 17.5234C195.696 17.5234 195.236 17.6283 194.844 17.8379C194.461 18.0475 194.142 18.3392 193.887 18.7129C193.641 19.0775 193.454 19.5059 193.326 19.998C193.199 20.4902 193.135 21.0189 193.135 21.584ZM213.533 26.1641V19.5742C213.533 19.1003 213.456 18.6947 213.301 18.3574C213.146 18.0111 212.904 17.7422 212.576 17.5508C212.257 17.3594 211.842 17.2637 211.332 17.2637C210.895 17.2637 210.516 17.3411 210.197 17.4961C209.878 17.6419 209.632 17.8561 209.459 18.1387C209.286 18.4121 209.199 18.7357 209.199 19.1094H205.262C205.262 18.4805 205.408 17.8835 205.699 17.3184C205.991 16.7533 206.415 16.2565 206.971 15.8281C207.527 15.3906 208.188 15.0488 208.953 14.8027C209.728 14.5566 210.594 14.4336 211.551 14.4336C212.699 14.4336 213.72 14.625 214.613 15.0078C215.507 15.3906 216.208 15.9648 216.719 16.7305C217.238 17.4961 217.498 18.4531 217.498 19.6016V25.9316C217.498 26.7428 217.548 27.4082 217.648 27.9277C217.749 28.4382 217.895 28.8848 218.086 29.2676V29.5H214.107C213.916 29.099 213.77 28.5977 213.67 27.9961C213.579 27.3854 213.533 26.7747 213.533 26.1641ZM214.053 20.4902L214.08 22.7188H211.879C211.359 22.7188 210.908 22.778 210.525 22.8965C210.143 23.015 209.828 23.1836 209.582 23.4023C209.336 23.612 209.154 23.8581 209.035 24.1406C208.926 24.4232 208.871 24.7331 208.871 25.0703C208.871 25.4076 208.949 25.7129 209.104 25.9863C209.258 26.2507 209.482 26.4603 209.773 26.6152C210.065 26.7611 210.407 26.834 210.799 26.834C211.391 26.834 211.906 26.7155 212.344 26.4785C212.781 26.2415 213.118 25.9499 213.355 25.6035C213.602 25.2572 213.729 24.929 213.738 24.6191L214.777 26.2871C214.632 26.6608 214.431 27.0482 214.176 27.4492C213.93 27.8503 213.615 28.2285 213.232 28.584C212.85 28.9303 212.389 29.2174 211.852 29.4453C211.314 29.6641 210.676 29.7734 209.938 29.7734C208.999 29.7734 208.146 29.5866 207.381 29.2129C206.624 28.8301 206.023 28.306 205.576 27.6406C205.139 26.9661 204.92 26.2005 204.92 25.3438C204.92 24.569 205.066 23.8809 205.357 23.2793C205.649 22.6777 206.077 22.1719 206.643 21.7617C207.217 21.3424 207.932 21.028 208.789 20.8184C209.646 20.5996 210.639 20.4902 211.77 20.4902H214.053ZM224.689 8.5V29.5H220.738V8.5H224.689Z" fill="white"/>
<defs>
<clipPath id="clip0_403_3713">
<rect width="40" height="40" fill="white" transform="translate(0.5)"/>
</clipPath>
</defs>
</svg>
