<svg width="249" height="40" viewBox="0 0 249 40" fill="none" xmlns="http://www.w3.org/2000/svg">
<path fill-rule="evenodd" clip-rule="evenodd" d="M7.5 10C7.5 8.61929 8.61929 7.5 10 7.5H13.75C15.1307 7.5 16.25 8.61929 16.25 10V30C16.25 31.3807 15.1307 32.5 13.75 32.5H10C8.61929 32.5 7.5 31.3807 7.5 30V10ZM13.75 10H10V30H13.75V10Z" fill="#DAC03B"/>
<path fill-rule="evenodd" clip-rule="evenodd" d="M23.75 10C23.75 8.61929 24.8693 7.5 26.25 7.5H30C31.3807 7.5 32.5 8.61929 32.5 10V30C32.5 31.3807 31.3807 32.5 30 32.5H26.25C24.8693 32.5 23.75 31.3807 23.75 30V10ZM30 10H26.25V30H30V10Z" fill="#DAC03B"/>
<path fill-rule="evenodd" clip-rule="evenodd" d="M30 12.5C30 11.8096 30.5596 11.25 31.25 11.25H35C35.663 11.25 36.2989 11.5134 36.7678 11.9822C37.2366 12.4511 37.5 13.087 37.5 13.75V26.25C37.5 26.913 37.2366 27.5489 36.7678 28.0178C36.2989 28.4866 35.663 28.75 35 28.75H31.25C30.5596 28.75 30 28.1904 30 27.5C30 26.8096 30.5596 26.25 31.25 26.25H35L35 13.75L31.25 13.75C30.5596 13.75 30 13.1904 30 12.5Z" fill="#DAC03B"/>
<path fill-rule="evenodd" clip-rule="evenodd" d="M3.23223 11.9822C3.70107 11.5134 4.33696 11.25 5 11.25H8.75C9.44036 11.25 10 11.8096 10 12.5C10 13.1904 9.44036 13.75 8.75 13.75L5 13.75V26.25H8.75C9.44036 26.25 10 26.8096 10 27.5C10 28.1904 9.44036 28.75 8.75 28.75H5C4.33696 28.75 3.70108 28.4866 3.23223 28.0178C2.76339 27.5489 2.5 26.913 2.5 26.25V13.75C2.5 13.087 2.76339 12.4511 3.23223 11.9822Z" fill="#DAC03B"/>
<path fill-rule="evenodd" clip-rule="evenodd" d="M13.75 20C13.75 19.3096 14.3096 18.75 15 18.75H25C25.6904 18.75 26.25 19.3096 26.25 20C26.25 20.6904 25.6904 21.25 25 21.25H15C14.3096 21.25 13.75 20.6904 13.75 20Z" fill="#DAC03B"/>
<path fill-rule="evenodd" clip-rule="evenodd" d="M35 20C35 19.3096 35.5596 18.75 36.25 18.75H38.75C39.4404 18.75 40 19.3096 40 20C40 20.6904 39.4404 21.25 38.75 21.25H36.25C35.5596 21.25 35 20.6904 35 20Z" fill="#DAC03B"/>
<path fill-rule="evenodd" clip-rule="evenodd" d="M0 20C0 19.3096 0.559644 18.75 1.25 18.75H3.75C4.44036 18.75 5 19.3096 5 20C5 20.6904 4.44036 21.25 3.75 21.25H1.25C0.559644 21.25 0 20.6904 0 20Z" fill="#DAC03B"/>
<path d="M62.1387 12.998L56.7246 29.5H52.3633L59.7598 9.59375H62.5352L62.1387 12.998ZM66.6367 29.5L61.209 12.998L60.7715 9.59375H63.5742L71.0117 29.5H66.6367ZM66.3906 22.0898V25.3027H55.877V22.0898H66.3906ZM76.1113 17.7695V29.5H72.1602V14.707H75.8652L76.1113 17.7695ZM75.5645 21.584H74.4707C74.4707 20.554 74.5938 19.6061 74.8398 18.7402C75.0951 17.8652 75.4642 17.1087 75.9473 16.4707C76.4395 15.8236 77.0456 15.3223 77.7656 14.9668C78.4857 14.6113 79.3197 14.4336 80.2676 14.4336C80.9238 14.4336 81.5254 14.5339 82.0723 14.7344C82.6191 14.9258 83.0885 15.2311 83.4805 15.6504C83.8815 16.0605 84.1914 16.5983 84.4102 17.2637C84.6289 17.9199 84.7383 18.7083 84.7383 19.6289V29.5H80.8008V20.0664C80.8008 19.3919 80.7096 18.8724 80.5273 18.5078C80.3451 18.1432 80.0853 17.888 79.748 17.7422C79.4199 17.5964 79.0234 17.5234 78.5586 17.5234C78.0482 17.5234 77.6016 17.6283 77.2188 17.8379C76.8451 18.0475 76.5352 18.3392 76.2891 18.7129C76.043 19.0775 75.8607 19.5059 75.7422 19.998C75.6237 20.4902 75.5645 21.0189 75.5645 21.584ZM84.3691 21.1328L82.9609 21.3105C82.9609 20.3444 83.0794 19.4466 83.3164 18.6172C83.5625 17.7878 83.9225 17.0586 84.3965 16.4297C84.8796 15.8008 85.4766 15.3132 86.1875 14.9668C86.8984 14.6113 87.7188 14.4336 88.6484 14.4336C89.3594 14.4336 90.0065 14.5384 90.5898 14.748C91.1732 14.9486 91.6699 15.2721 92.0801 15.7188C92.4993 16.1562 92.8184 16.7305 93.0371 17.4414C93.265 18.1523 93.3789 19.0228 93.3789 20.0527V29.5H89.4277V20.0527C89.4277 19.3691 89.3366 18.8496 89.1543 18.4941C88.9811 18.1296 88.7259 17.8789 88.3887 17.7422C88.0605 17.5964 87.6686 17.5234 87.2129 17.5234C86.7389 17.5234 86.3242 17.6191 85.9688 17.8105C85.6133 17.9928 85.3171 18.248 85.0801 18.5762C84.8431 18.9043 84.6654 19.2871 84.5469 19.7246C84.4284 20.153 84.3691 20.6224 84.3691 21.1328ZM95.7988 22.2539V21.9668C95.7988 20.8822 95.9538 19.8841 96.2637 18.9727C96.5736 18.0521 97.0247 17.2546 97.6172 16.5801C98.2096 15.9056 98.9388 15.3815 99.8047 15.0078C100.671 14.625 101.664 14.4336 102.785 14.4336C103.906 14.4336 104.904 14.625 105.779 15.0078C106.654 15.3815 107.388 15.9056 107.98 16.5801C108.582 17.2546 109.038 18.0521 109.348 18.9727C109.658 19.8841 109.812 20.8822 109.812 21.9668V22.2539C109.812 23.3294 109.658 24.3275 109.348 25.248C109.038 26.1595 108.582 26.957 107.98 27.6406C107.388 28.3151 106.659 28.8392 105.793 29.2129C104.927 29.5866 103.934 29.7734 102.812 29.7734C101.691 29.7734 100.693 29.5866 99.8184 29.2129C98.9525 28.8392 98.2188 28.3151 97.6172 27.6406C97.0247 26.957 96.5736 26.1595 96.2637 25.248C95.9538 24.3275 95.7988 23.3294 95.7988 22.2539ZM99.7363 21.9668V22.2539C99.7363 22.8737 99.791 23.4525 99.9004 23.9902C100.01 24.528 100.183 25.002 100.42 25.4121C100.666 25.8132 100.985 26.1276 101.377 26.3555C101.769 26.5833 102.247 26.6973 102.812 26.6973C103.359 26.6973 103.829 26.5833 104.221 26.3555C104.613 26.1276 104.927 25.8132 105.164 25.4121C105.401 25.002 105.574 24.528 105.684 23.9902C105.802 23.4525 105.861 22.8737 105.861 22.2539V21.9668C105.861 21.3652 105.802 20.8001 105.684 20.2715C105.574 19.7337 105.396 19.2598 105.15 18.8496C104.913 18.4303 104.599 18.1022 104.207 17.8652C103.815 17.6283 103.341 17.5098 102.785 17.5098C102.229 17.5098 101.755 17.6283 101.363 17.8652C100.98 18.1022 100.666 18.4303 100.42 18.8496C100.183 19.2598 100.01 19.7337 99.9004 20.2715C99.791 20.8001 99.7363 21.3652 99.7363 21.9668ZM100.898 12.7109L103.578 8.5H107.857L104.098 12.7109H100.898ZM120.23 25.4121C120.23 25.1296 120.148 24.8743 119.984 24.6465C119.82 24.4186 119.515 24.209 119.068 24.0176C118.631 23.8171 117.997 23.6348 117.168 23.4707C116.421 23.3066 115.723 23.1016 115.076 22.8555C114.438 22.6003 113.882 22.2949 113.408 21.9395C112.943 21.584 112.579 21.1647 112.314 20.6816C112.05 20.1895 111.918 19.6289 111.918 19C111.918 18.3802 112.05 17.7969 112.314 17.25C112.588 16.7031 112.975 16.2201 113.477 15.8008C113.987 15.3724 114.607 15.0397 115.336 14.8027C116.074 14.5566 116.904 14.4336 117.824 14.4336C119.109 14.4336 120.212 14.6387 121.133 15.0488C122.062 15.459 122.773 16.0241 123.266 16.7441C123.767 17.4551 124.018 18.2663 124.018 19.1777H120.08C120.08 18.7949 119.998 18.4531 119.834 18.1523C119.679 17.8424 119.433 17.6009 119.096 17.4277C118.768 17.2454 118.339 17.1543 117.811 17.1543C117.373 17.1543 116.995 17.2318 116.676 17.3867C116.357 17.5326 116.111 17.7331 115.938 17.9883C115.773 18.2344 115.691 18.5078 115.691 18.8086C115.691 19.0365 115.737 19.2415 115.828 19.4238C115.928 19.597 116.088 19.7565 116.307 19.9023C116.525 20.0482 116.808 20.1849 117.154 20.3125C117.51 20.431 117.947 20.5404 118.467 20.6406C119.533 20.8594 120.486 21.1465 121.324 21.502C122.163 21.8483 122.828 22.3223 123.32 22.9238C123.812 23.5163 124.059 24.2956 124.059 25.2617C124.059 25.918 123.913 26.5195 123.621 27.0664C123.329 27.6133 122.91 28.0918 122.363 28.502C121.816 28.903 121.16 29.2174 120.395 29.4453C119.638 29.6641 118.786 29.7734 117.838 29.7734C116.462 29.7734 115.295 29.5273 114.338 29.0352C113.39 28.543 112.67 27.9186 112.178 27.1621C111.695 26.3965 111.453 25.6126 111.453 24.8105H115.186C115.204 25.3483 115.34 25.7812 115.596 26.1094C115.86 26.4375 116.193 26.6745 116.594 26.8203C117.004 26.9661 117.446 27.0391 117.92 27.0391C118.43 27.0391 118.854 26.9707 119.191 26.834C119.529 26.6882 119.784 26.4967 119.957 26.2598C120.139 26.0137 120.23 25.7311 120.23 25.4121ZM147.191 26.3008V29.5H136.596V26.3008H147.191ZM137.936 9.59375V29.5H133.834V9.59375H137.936ZM145.811 17.7012V20.8184H136.596V17.7012H145.811ZM147.178 9.59375V12.8066H136.596V9.59375H147.178ZM154.014 26.6289L157.295 14.707H161.41L156.42 29.5H153.932L154.014 26.6289ZM151.758 14.707L155.053 26.6426L155.121 29.5H152.619L147.629 14.707H151.758ZM162.326 22.2539V21.9668C162.326 20.8822 162.481 19.8841 162.791 18.9727C163.101 18.0521 163.552 17.2546 164.145 16.5801C164.737 15.9056 165.466 15.3815 166.332 15.0078C167.198 14.625 168.191 14.4336 169.312 14.4336C170.434 14.4336 171.432 14.625 172.307 15.0078C173.182 15.3815 173.915 15.9056 174.508 16.5801C175.109 17.2546 175.565 18.0521 175.875 18.9727C176.185 19.8841 176.34 20.8822 176.34 21.9668V22.2539C176.34 23.3294 176.185 24.3275 175.875 25.248C175.565 26.1595 175.109 26.957 174.508 27.6406C173.915 28.3151 173.186 28.8392 172.32 29.2129C171.454 29.5866 170.461 29.7734 169.34 29.7734C168.219 29.7734 167.221 29.5866 166.346 29.2129C165.48 28.8392 164.746 28.3151 164.145 27.6406C163.552 26.957 163.101 26.1595 162.791 25.248C162.481 24.3275 162.326 23.3294 162.326 22.2539ZM166.264 21.9668V22.2539C166.264 22.8737 166.318 23.4525 166.428 23.9902C166.537 24.528 166.71 25.002 166.947 25.4121C167.193 25.8132 167.512 26.1276 167.904 26.3555C168.296 26.5833 168.775 26.6973 169.34 26.6973C169.887 26.6973 170.356 26.5833 170.748 26.3555C171.14 26.1276 171.454 25.8132 171.691 25.4121C171.928 25.002 172.102 24.528 172.211 23.9902C172.329 23.4525 172.389 22.8737 172.389 22.2539V21.9668C172.389 21.3652 172.329 20.8001 172.211 20.2715C172.102 19.7337 171.924 19.2598 171.678 18.8496C171.441 18.4303 171.126 18.1022 170.734 17.8652C170.342 17.6283 169.868 17.5098 169.312 17.5098C168.757 17.5098 168.283 17.6283 167.891 17.8652C167.508 18.1022 167.193 18.4303 166.947 18.8496C166.71 19.2598 166.537 19.7337 166.428 20.2715C166.318 20.8001 166.264 21.3652 166.264 21.9668ZM182.916 8.5V29.5H178.965V8.5H182.916ZM194.92 25.959V14.707H198.857V29.5H195.152L194.92 25.959ZM195.357 22.9238L196.52 22.8965C196.52 23.8809 196.406 24.7969 196.178 25.6445C195.95 26.4831 195.608 27.2122 195.152 27.832C194.697 28.4427 194.122 28.9212 193.43 29.2676C192.737 29.6048 191.921 29.7734 190.982 29.7734C190.262 29.7734 189.597 29.6732 188.986 29.4727C188.385 29.263 187.865 28.9395 187.428 28.502C186.999 28.0553 186.662 27.4857 186.416 26.793C186.179 26.0911 186.061 25.248 186.061 24.2637V14.707H189.998V24.291C189.998 24.7285 190.048 25.0977 190.148 25.3984C190.258 25.6992 190.408 25.9453 190.6 26.1367C190.791 26.3281 191.014 26.4648 191.27 26.5469C191.534 26.6289 191.826 26.6699 192.145 26.6699C192.956 26.6699 193.594 26.5059 194.059 26.1777C194.533 25.8496 194.865 25.403 195.057 24.8379C195.257 24.2637 195.357 23.6257 195.357 22.9238ZM209.111 14.707V17.4961H200.498V14.707H209.111ZM202.631 11.0566H206.568V25.043C206.568 25.4714 206.623 25.7995 206.732 26.0273C206.851 26.2552 207.024 26.4147 207.252 26.5059C207.48 26.5879 207.767 26.6289 208.113 26.6289C208.359 26.6289 208.578 26.6198 208.77 26.6016C208.97 26.5742 209.139 26.5469 209.275 26.5195L209.289 29.418C208.952 29.5273 208.587 29.6139 208.195 29.6777C207.803 29.7415 207.37 29.7734 206.896 29.7734C206.031 29.7734 205.274 29.6322 204.627 29.3496C203.989 29.0579 203.497 28.5931 203.15 27.9551C202.804 27.3171 202.631 26.4785 202.631 25.4395V11.0566ZM215.51 14.707V29.5H211.559V14.707H215.51ZM211.312 10.8516C211.312 10.2773 211.513 9.80339 211.914 9.42969C212.315 9.05599 212.853 8.86914 213.527 8.86914C214.193 8.86914 214.726 9.05599 215.127 9.42969C215.537 9.80339 215.742 10.2773 215.742 10.8516C215.742 11.4258 215.537 11.8997 215.127 12.2734C214.726 12.6471 214.193 12.834 213.527 12.834C212.853 12.834 212.315 12.6471 211.914 12.2734C211.513 11.8997 211.312 11.4258 211.312 10.8516ZM218.135 22.2539V21.9668C218.135 20.8822 218.29 19.8841 218.6 18.9727C218.91 18.0521 219.361 17.2546 219.953 16.5801C220.546 15.9056 221.275 15.3815 222.141 15.0078C223.007 14.625 224 14.4336 225.121 14.4336C226.242 14.4336 227.24 14.625 228.115 15.0078C228.99 15.3815 229.724 15.9056 230.316 16.5801C230.918 17.2546 231.374 18.0521 231.684 18.9727C231.993 19.8841 232.148 20.8822 232.148 21.9668V22.2539C232.148 23.3294 231.993 24.3275 231.684 25.248C231.374 26.1595 230.918 26.957 230.316 27.6406C229.724 28.3151 228.995 28.8392 228.129 29.2129C227.263 29.5866 226.27 29.7734 225.148 29.7734C224.027 29.7734 223.029 29.5866 222.154 29.2129C221.288 28.8392 220.555 28.3151 219.953 27.6406C219.361 26.957 218.91 26.1595 218.6 25.248C218.29 24.3275 218.135 23.3294 218.135 22.2539ZM222.072 21.9668V22.2539C222.072 22.8737 222.127 23.4525 222.236 23.9902C222.346 24.528 222.519 25.002 222.756 25.4121C223.002 25.8132 223.321 26.1276 223.713 26.3555C224.105 26.5833 224.583 26.6973 225.148 26.6973C225.695 26.6973 226.165 26.5833 226.557 26.3555C226.949 26.1276 227.263 25.8132 227.5 25.4121C227.737 25.002 227.91 24.528 228.02 23.9902C228.138 23.4525 228.197 22.8737 228.197 22.2539V21.9668C228.197 21.3652 228.138 20.8001 228.02 20.2715C227.91 19.7337 227.732 19.2598 227.486 18.8496C227.249 18.4303 226.935 18.1022 226.543 17.8652C226.151 17.6283 225.677 17.5098 225.121 17.5098C224.565 17.5098 224.091 17.6283 223.699 17.8652C223.316 18.1022 223.002 18.4303 222.756 18.8496C222.519 19.2598 222.346 19.7337 222.236 20.2715C222.127 20.8001 222.072 21.3652 222.072 21.9668ZM238.424 17.8652V29.5H234.486V14.707H238.178L238.424 17.8652ZM237.85 21.584H236.783C236.783 20.4902 236.924 19.5059 237.207 18.6309C237.49 17.7467 237.886 16.9948 238.396 16.375C238.907 15.7461 239.513 15.2676 240.215 14.9395C240.926 14.6022 241.719 14.4336 242.594 14.4336C243.286 14.4336 243.92 14.5339 244.494 14.7344C245.068 14.9349 245.561 15.2539 245.971 15.6914C246.39 16.1289 246.709 16.7077 246.928 17.4277C247.156 18.1478 247.27 19.0273 247.27 20.0664V29.5H243.305V20.0527C243.305 19.3965 243.214 18.8861 243.031 18.5215C242.849 18.1569 242.58 17.9017 242.225 17.7559C241.878 17.6009 241.45 17.5234 240.939 17.5234C240.411 17.5234 239.951 17.6283 239.559 17.8379C239.176 18.0475 238.857 18.3392 238.602 18.7129C238.355 19.0775 238.169 19.5059 238.041 19.998C237.913 20.4902 237.85 21.0189 237.85 21.584Z" fill="white"/>
</svg>
